# xmcd
#
# Track frame offsets:
# 150
# 14792
# 28146
# 44655
# 57506
# 77300
# 90513
# 107484
# 122917
# 137988
#
# Disc length: 2001 seconds
#
#
# Revision: 0
# Processed by: cddbd v1.5.2PL0 Copyright (c) Steve Scherf et al.
# Submitted via: FreeRIP 2.951 
#
DISCID=8707cf0a
DTITLE=Da Cor do Pagode-Parabéns Pra Nós  - Parabéns Pra Nós 
DYEAR=1900
DGENRE=Samba
TTITLE0=pense em mim
TTITLE1=Eterno Amor
TTITLE2=Parabéns pra nós
TTITLE3=Quero Mais
TTITLE4=Pout-Pourri Desenganos
TTITLE5=Reverso Da Paixão
TTITLE6=Simples Momentos
TTITLE7=Estou Fora
TTITLE8=Fruto do Amor
TTITLE9=Duas Faces
EXTD=
EXTT0=
EXTT1=
EXTT2=
EXTT3=
EXTT4=
EXTT5=
EXTT6=
EXTT7=
EXTT8=
EXTT9=
PLAYORDER=
